<?xml version="1.0" standalone="no"?>
<!DOCTYPE svg PUBLIC "-//W3C//DTD SVG 20010904//EN"
 "http://www.w3.org/TR/2001/REC-SVG-20010904/DTD/svg10.dtd">
<svg version="1.0" xmlns="http://www.w3.org/2000/svg"
 width="935.000000pt" height="935.000000pt" viewBox="0 0 935.000000 935.000000"
 preserveAspectRatio="xMidYMid meet">
<metadata>
Created by potrace 1.14, written by Peter Selinger 2001-2017
</metadata>
<g transform="translate(0.000000,935.000000) scale(0.100000,-0.100000)"
fill="#000000" stroke="none">
<path d="M3435 9297 c-111 -49 -280 -136 -263 -137 4 0 52 22 105 49 54 28
123 59 153 71 170 67 177 70 144 70 -10 -1 -73 -24 -139 -53z"/>
<path d="M5200 9342 c0 -7 26 -20 80 -40 14 -6 51 -22 82 -36 31 -14 62 -26
67 -26 6 0 11 -5 11 -11 0 -6 6 -9 14 -6 8 3 31 -3 52 -14 21 -10 43 -19 48
-19 28 0 -221 123 -294 146 -52 16 -60 17 -60 6z"/>
<path d="M3115 9130 c-3 -6 1 -7 9 -4 18 7 21 14 7 14 -6 0 -13 -4 -16 -10z"/>
<path d="M5829 8985 c68 -72 134 -146 147 -165 47 -70 205 -272 188 -240 -79
149 -306 426 -410 500 -38 27 -22 6 75 -95z"/>
<path d="M2534 8638 l-19 -23 23 19 c21 18 27 26 19 26 -2 0 -12 -10 -23 -22z"/>
<path d="M2380 8475 c-17 -10 -20 -14 -9 -15 9 0 22 7 29 15 15 18 12 18 -20
0z"/>
<path d="M2295 8440 c-7 -12 2 -12 30 0 19 8 19 9 -2 9 -12 1 -25 -3 -28 -9z"/>
<path d="M2110 8430 c-12 -8 -11 -10 7 -10 12 0 25 5 28 10 8 13 -15 13 -35 0z"/>
<path d="M2404 8408 c-38 -71 -74 -150 -73 -161 0 -7 22 33 50 87 27 54 47
101 45 103 -3 3 -12 -10 -22 -29z"/>
<path d="M2215 8410 c-22 -11 -29 -17 -15 -14 38 10 87 32 70 33 -8 0 -33 -8
-55 -19z"/>
<path d="M2040 8400 c-18 -12 -2 -12 25 0 13 6 15 9 5 9 -8 0 -22 -4 -30 -9z"/>
<path d="M1998 8383 c7 -3 16 -2 19 1 4 3 -2 6 -13 5 -11 0 -14 -3 -6 -6z"/>
<path d="M2075 8360 c-13 -6 -15 -9 -5 -9 8 0 22 4 30 9 18 12 2 12 -25 0z"/>
<path d="M1820 8340 c-36 -10 -57 -19 -48 -19 17 -1 140 28 147 35 9 9 -37 1
-99 -16z"/>
<path d="M1933 8327 c-23 -7 -45 -16 -50 -21 -10 -10 47 1 97 20 44 16 11 16
-47 1z"/>
<path d="M4070 8329 c0 -4 7 -22 15 -40 8 -19 14 -27 14 -19 0 14 -28 72 -29
59z"/>
<path d="M1685 8310 c-16 -4 -51 -8 -77 -9 -26 0 -50 -6 -53 -12 -9 -13 102
-2 160 16 43 14 19 18 -30 5z"/>
<path d="M6291 8300 c0 -8 4 -22 9 -30 12 -18 12 -2 0 25 -6 13 -9 15 -9 5z"/>
<path d="M1468 8283 c12 -2 32 -2 45 0 12 2 2 4 -23 4 -25 0 -35 -2 -22 -4z"/>
<path d="M4345 8251 c21 -54 45 -196 54 -316 12 -158 14 -572 2 -683 -6 -61
-5 -72 8 -67 8 3 30 0 48 -6 25 -8 32 -14 24 -22 -22 -22 -10 -27 22 -11 33
18 138 46 145 40 2 -3 -21 -11 -52 -20 -30 -9 -85 -32 -122 -52 -36 -19 -73
-33 -80 -30 -8 3 -29 -3 -47 -14 -29 -18 -30 -26 -2 -20 6 1 20 3 33 5 23 2
23 2 -5 -27 l-27 -29 34 17 c19 10 51 29 70 43 31 22 30 20 -10 -20 -25 -25
-56 -66 -69 -90 l-24 -44 33 30 c31 28 32 29 20 5 -13 -24 -12 -24 6 -10 10 8
25 23 32 33 11 14 63 47 74 47 2 0 3 -33 4 -73 1 -53 7 -85 24 -121 l24 -49
28 32 c15 17 28 38 28 46 0 8 8 19 19 24 15 8 20 6 29 -14 17 -38 39 -31 46
15 l6 40 50 0 c40 0 48 -3 44 -15 -5 -11 1 -15 19 -15 31 0 44 16 20 24 -10 2
-5 4 12 3 26 -2 30 -7 38 -42 5 -22 6 -66 4 -99 l-5 -58 22 33 c13 19 26 47
30 63 4 15 14 35 21 43 21 20 19 70 -6 139 -19 53 -35 106 -55 173 -6 21 -5
22 13 13 14 -8 32 -8 55 -2 24 7 47 6 79 -3 41 -12 44 -16 50 -52 3 -22 7 -31
8 -20 1 15 3 17 14 6 7 -7 12 -40 12 -86 -1 -79 5 -84 25 -22 16 50 28 47 33
-10 3 -27 3 -6 1 46 -1 52 -7 97 -12 100 -5 3 -22 29 -38 56 -16 28 -49 79
-73 115 -89 129 -251 371 -251 375 0 2 -17 30 -39 62 -21 32 -66 108 -99 168
-34 61 -62 107 -62 104 0 -14 104 -300 137 -376 18 -41 27 -42 18 -3 -5 25 -3
30 12 30 12 -1 39 -33 78 -95 66 -103 160 -239 187 -269 10 -11 18 -23 18 -26
0 -4 -40 -7 -90 -7 -49 -1 -90 2 -90 6 0 4 21 15 48 24 37 13 40 15 12 10 -60
-10 -63 -9 -73 25 -6 17 -13 32 -17 32 -9 0 23 -108 41 -141 6 -11 8 -24 4
-27 -7 -8 -44 37 -45 54 0 18 -30 39 -38 27 -4 -5 -41 -13 -82 -16 -85 -7
-128 -20 -182 -53 -33 -21 -42 -22 -95 -14 -32 6 -59 10 -60 10 -2 0 0 19 2
43 10 84 14 144 14 229 l1 87 43 11 c23 6 65 19 92 30 28 10 64 22 81 25 29 6
34 3 61 -42 16 -26 42 -74 58 -106 15 -31 30 -55 32 -53 7 7 -55 145 -91 205
-19 31 -55 97 -81 146 -26 50 -59 110 -73 135 -71 126 -142 260 -161 306 -13
29 -29 51 -37 51 -9 0 -13 -6 -9 -16z m108 -191 c76 -149 142 -274 185 -351
l32 -55 -73 -23 c-39 -13 -91 -30 -115 -38 -23 -9 -44 -14 -46 -12 -2 2 -6 83
-9 179 -4 100 -15 227 -27 295 -21 128 -23 141 -16 134 3 -3 34 -61 69 -129z
m315 -322 c24 -37 30 -54 22 -62 -12 -12 -40 17 -40 41 0 8 -9 31 -20 53 -22
43 -26 66 -7 37 7 -10 27 -41 45 -69z m142 -608 c0 -5 -2 -10 -4 -10 -3 0 -8
5 -11 10 -3 6 -1 10 4 10 6 0 11 -4 11 -10z m-180 -25 c0 -2 -10 -9 -22 -15
-22 -11 -22 -10 -4 4 21 17 26 19 26 11z m-114 -57 c5 -7 3 -8 -5 -4 -8 5 -14
0 -18 -13 -3 -12 -10 -21 -15 -21 -5 0 -6 5 -3 10 9 14 -8 13 -23 -2 -6 -6
-14 -9 -17 -6 -6 5 52 45 67 47 4 1 10 -4 14 -11z m148 -48 c-6 -6 -28 -13
-50 -15 l-39 -5 30 14 c36 18 74 21 59 6z m-124 -34 c0 -2 -7 -7 -16 -10 -8
-3 -12 -2 -9 4 6 10 25 14 25 6z"/>
<path d="M4870 8265 c0 -4 7 -20 16 -36 54 -105 192 -477 200 -540 3 -21 11
-57 18 -80 l14 -44 1 36 c2 57 -32 171 -104 353 -87 222 -145 345 -145 311z"/>
<path d="M4030 7975 c0 -160 0 -420 0 -580 0 -280 6 -367 36 -524 16 -81 13
-104 -6 -44 -6 21 -14 44 -16 52 -2 8 -7 12 -9 9 -5 -5 37 -128 84 -248 36
-90 41 -84 7 9 -13 37 -27 87 -30 112 -3 24 -16 112 -27 194 -16 115 -20 184
-17 293 3 78 9 146 14 151 25 23 232 117 239 109 7 -7 55 -275 55 -308 0 -18
-8 -31 -22 -38 -22 -11 -21 -11 5 -6 25 6 27 4 27 -27 1 -29 2 -31 11 -16 21
35 -20 275 -95 560 -45 172 -128 426 -133 410 -4 -12 16 -87 68 -248 31 -99
79 -280 79 -300 0 -8 -17 -19 -37 -26 -21 -6 -76 -29 -122 -50 l-83 -39 7 148
c4 81 12 152 17 159 18 22 17 453 -1 453 -4 0 -7 -95 -8 -211 -2 -117 -5 -214
-8 -217 -3 -3 -5 26 -5 64 -1 38 -3 101 -5 139 -2 39 -7 122 -10 184 -3 63 -8
117 -11 120 -3 3 -5 -125 -4 -284z"/>
<path d="M3820 8187 c0 -20 4 -38 9 -42 6 -3 7 10 4 32 -8 50 -13 55 -13 10z"/>
<path d="M2300 8189 c0 -5 5 -7 10 -4 6 3 10 8 10 11 0 2 -4 4 -10 4 -5 0 -10
-5 -10 -11z"/>
<path d="M2286 8155 c-9 -26 -7 -32 5 -12 6 10 9 21 6 23 -2 3 -7 -2 -11 -11z"/>
<path d="M5371 8154 c0 -11 3 -14 6 -6 3 7 2 16 -1 19 -3 4 -6 -2 -5 -13z"/>
<path d="M4130 8138 c0 -7 5 -20 10 -28 8 -12 10 -11 10 7 0 12 -4 25 -10 28
-5 3 -10 0 -10 -7z"/>
<path d="M3833 8085 c0 -22 2 -30 4 -17 2 12 2 30 0 40 -3 9 -5 -1 -4 -23z"/>
<path d="M4886 8050 c21 -38 39 -68 42 -65 5 5 -66 135 -74 135 -3 0 12 -31
32 -70z"/>
<path d="M2255 8079 c-4 -6 -5 -12 -2 -15 2 -3 7 2 10 11 7 17 1 20 -8 4z"/>
<path d="M5406 8030 c9 -30 23 -73 30 -95 13 -39 13 -39 8 -5 -8 47 -35 133
-46 145 -4 5 -1 -15 8 -45z"/>
<path d="M3843 7970 c0 -25 2 -35 4 -22 2 12 2 32 0 45 -2 12 -4 2 -4 -23z"/>
<path d="M4930 7961 c0 -6 4 -13 10 -16 6 -3 7 1 4 9 -7 18 -14 21 -14 7z"/>
<path d="M4950 7921 c0 -6 4 -13 10 -16 6 -3 7 1 4 9 -7 18 -14 21 -14 7z"/>
<path d="M3848 7885 c2 -14 6 -25 8 -25 2 0 4 11 4 25 0 14 -4 25 -9 25 -4 0
-6 -11 -3 -25z"/>
<path d="M5451 7885 c1 -19 18 -51 18 -35 0 8 -4 22 -9 30 -5 8 -9 11 -9 5z"/>
<path d="M4990 7857 c0 -14 31 -69 36 -64 3 3 -4 20 -15 38 -12 19 -21 30 -21
26z"/>
<path d="M3209 7664 c0 -76 -2 -149 -3 -161 -5 -48 -14 -31 -26 52 -7 47 -14
85 -15 83 -6 -5 -74 -508 -85 -622 -11 -121 -12 -152 -5 -145 5 6 59 436 70
562 4 42 11 77 16 77 5 0 9 -10 9 -21 0 -47 53 -276 81 -348 34 -88 35 -98 12
-104 -14 -4 -13 -5 4 -6 19 -1 26 -15 53 -103 17 -57 35 -113 40 -126 15 -35
12 -42 -17 -43 -25 -1 -24 -2 7 -8 19 -4 37 -6 39 -5 1 2 -6 31 -18 66 -11 35
-28 95 -37 133 -9 39 -18 77 -20 85 -68 261 -92 415 -94 600 -1 91 -3 167 -6
169 -2 2 -4 -58 -5 -135z m5 -229 c3 -8 1 -15 -4 -15 -6 0 -10 7 -10 15 0 8 2
15 4 15 2 0 6 -7 10 -15z"/>
<path d="M3861 7764 c0 -11 3 -14 6 -6 3 7 2 16 -1 19 -3 4 -6 -2 -5 -13z"/>
<path d="M5006 7757 c3 -10 9 -15 12 -12 3 3 0 11 -7 18 -10 9 -11 8 -5 -6z"/>
<path d="M5491 7744 c0 -11 3 -14 6 -6 3 7 2 16 -1 19 -3 4 -6 -2 -5 -13z"/>
<path d="M5020 7729 c0 -10 40 -99 46 -99 2 0 -2 16 -10 35 -17 40 -35 73 -36
64z"/>
<path d="M3373 7640 c3 -19 9 -56 13 -82 3 -27 9 -48 13 -48 8 0 -16 150 -25
159 -4 3 -4 -10 -1 -29z"/>
<path d="M5765 7635 c32 -236 75 -609 75 -660 0 -37 4 -65 10 -65 6 0 9 15 8
32 -3 32 -2 33 32 31 l35 -2 -32 10 c-18 5 -34 13 -36 17 -3 4 -7 46 -11 93
l-7 87 32 11 c43 15 41 15 81 -21 37 -34 81 -112 104 -183 12 -39 13 -40 13
-9 1 40 -18 86 -63 149 -22 31 -51 96 -76 170 -39 117 -60 164 -60 138 0 -20
-16 -15 -29 10 -12 23 -12 24 5 -45 4 -17 2 -28 -4 -28 -11 0 -35 97 -31 122
1 7 -3 26 -9 41 -7 16 -15 47 -18 70 -4 23 -11 49 -16 57 -6 10 -7 1 -3 -25z
m72 -327 c-3 -7 -5 -2 -5 12 0 14 2 19 5 13 2 -7 2 -19 0 -25z m14 -31 c-10
-9 -11 -8 -5 6 3 10 9 15 12 12 3 -3 0 -11 -7 -18z m24 -27 c8 -13 -5 -13 -25
0 -13 8 -13 10 2 10 9 0 20 -4 23 -10z"/>
<path d="M5530 7611 c0 -11 4 -22 9 -25 4 -3 6 6 3 19 -5 30 -12 33 -12 6z"/>
<path d="M4790 7578 c0 -10 6 -32 14 -50 8 -18 26 -62 40 -98 32 -83 33 -67 2
25 -32 93 -55 144 -56 123z"/>
<path d="M5080 7578 c0 -9 5 -20 11 -23 17 -11 18 -2 3 19 -12 17 -14 17 -14
4z"/>
<path d="M3082 7510 c0 -19 2 -27 5 -17 2 9 2 25 0 35 -3 9 -5 1 -5 -18z"/>
<path d="M3404 7475 c3 -16 15 -73 26 -125 11 -52 25 -124 31 -160 15 -102 17
-111 34 -190 20 -96 69 -283 100 -380 13 -41 28 -95 35 -119 6 -23 13 -41 16
-39 4 5 -30 153 -71 303 -80 290 -98 387 -42 225 68 -198 204 -546 184 -470
-6 22 -145 417 -167 475 -30 77 -99 317 -116 403 -16 74 -42 143 -30 77z"/>
<path d="M6640 7461 c0 -5 7 -12 16 -15 14 -5 15 -4 4 9 -14 17 -20 19 -20 6z"/>
<path d="M3065 7408 c-22 -147 -34 -808 -15 -808 4 0 10 25 12 55 2 32 -1 55
-7 55 -5 0 -3 5 5 10 12 8 12 12 2 18 -13 9 -11 113 8 522 4 102 7 187 5 188
-2 2 -6 -16 -10 -40z"/>
<path d="M6710 7390 c59 -51 75 -52 18 0 -23 22 -47 40 -53 40 -5 0 10 -18 35
-40z"/>
<path d="M5171 7364 c0 -11 3 -14 6 -6 3 7 2 16 -1 19 -3 4 -6 -2 -5 -13z"/>
<path d="M6670 7314 c8 -8 23 -20 34 -26 19 -10 18 -8 -3 16 -26 27 -53 37
-31 10z"/>
<path d="M5182 7275 c0 -16 2 -22 5 -12 2 9 2 23 0 30 -3 6 -5 -1 -5 -18z"/>
<path d="M6856 7255 c15 -13 30 -22 32 -20 6 6 -40 44 -52 45 -5 0 4 -11 20
-25z"/>
<path d="M1992 7240 c0 -14 2 -19 5 -12 2 6 2 18 0 25 -3 6 -5 1 -5 -13z"/>
<path d="M6779 7237 c19 -12 46 -30 60 -39 14 -9 31 -17 36 -17 6 -1 -17 17
-50 39 -33 22 -64 40 -70 40 -5 0 5 -10 24 -23z"/>
<path d="M5192 7200 c0 -19 2 -27 5 -17 2 9 2 25 0 35 -3 9 -5 1 -5 -18z"/>
<path d="M1981 7194 c0 -11 3 -14 6 -6 3 7 2 16 -1 19 -3 4 -6 -2 -5 -13z"/>
<path d="M2161 7200 c-3 -20 -1 -151 4 -187 2 -15 8 -73 14 -128 13 -114 66
-343 77 -332 3 2 -9 71 -25 153 -28 138 -56 340 -64 459 -2 28 -5 43 -6 35z"/>
<path d="M6958 7175 c17 -14 34 -25 38 -25 11 0 -48 49 -59 50 -5 0 5 -11 21
-25z"/>
<path d="M2876 7130 c-4 -25 -10 -178 -12 -340 -2 -162 -7 -302 -11 -310 -10
-23 -21 73 -23 200 0 63 -5 133 -10 155 -5 25 -7 -34 -3 -157 4 -145 2 -202
-6 -212 -7 -8 -8 -17 -3 -19 4 -3 9 -25 10 -49 7 -129 25 -300 37 -353 29
-120 39 -138 91 -167 52 -29 45 -39 -8 -12 -30 15 -31 15 -26 -4 5 -18 3 -19
-13 -9 -10 6 -19 17 -19 23 0 6 -7 17 -15 24 -12 10 -15 10 -15 -1 -1 -9 -4
-8 -11 4 -16 28 -79 90 -85 84 -3 -2 -21 -72 -40 -153 -36 -159 -58 -223 -48
-144 3 24 8 48 10 52 3 5 1 8 -3 8 -16 0 -72 -296 -73 -381 0 -33 5 -40 53
-72 64 -44 121 -59 210 -59 l67 1 86 70 c71 59 99 74 177 101 95 32 148 60
113 60 -10 0 -15 5 -11 13 4 6 -2 3 -12 -9 -10 -11 -48 -31 -86 -43 -88 -29
-110 -41 -160 -87 -95 -88 -105 -94 -160 -94 -98 1 -201 35 -245 82 -22 24
-22 26 -8 89 8 35 24 92 36 127 18 51 26 63 48 68 15 3 70 19 122 34 107 32
165 43 229 44 41 1 48 6 68 44 1 2 21 -16 45 -40 44 -46 85 -98 80 -105 -1 -2
9 -25 22 -51 23 -45 135 -160 160 -163 19 -3 -97 -20 -131 -19 -18 0 -33 -4
-33 -9 0 -5 -19 -11 -42 -15 -51 -8 -151 -59 -278 -142 -156 -101 -298 -161
-402 -171 -52 -5 -61 -3 -95 22 -21 16 -53 44 -70 63 -20 21 -33 30 -33 21 0
-17 84 -101 118 -118 24 -13 155 0 197 19 150 66 278 129 285 139 4 6 152 100
198 126 17 9 130 31 204 40 32 3 60 11 63 16 9 14 41 11 55 -7 21 -24 92 -62
128 -69 19 -3 72 -19 119 -35 48 -17 96 -30 108 -30 23 0 155 -41 210 -65 17
-8 81 -34 143 -59 62 -25 122 -52 135 -60 12 -8 36 -17 54 -21 17 -3 37 -13
44 -21 14 -17 33 -19 23 -2 -5 8 0 9 16 5 17 -4 67 17 189 80 181 93 183 95
318 196 l92 68 78 -35 c43 -20 94 -45 113 -55 l35 -19 5 -118 c4 -66 7 -96 8
-69 10 233 26 456 42 590 9 72 6 99 -5 49 -12 -51 -15 -58 -40 -88 -21 -26
-25 -28 -41 -15 -16 13 -17 12 -11 -5 9 -22 -10 -96 -24 -96 -6 0 -5 -9 2 -22
12 -22 12 -22 20 -3 4 11 8 35 8 54 1 28 4 32 19 26 9 -4 23 -8 30 -8 7 0 12
-13 12 -31 -1 -49 -19 -238 -24 -243 -7 -7 -156 69 -151 78 3 4 -3 5 -12 3
-10 -2 -25 0 -33 6 -13 9 -9 16 24 45 47 42 56 43 56 10 0 -14 -4 -25 -10 -25
-5 0 -10 -4 -10 -10 0 -5 9 -10 20 -10 18 0 20 7 20 58 0 31 -3 67 -6 79 l-6
22 -27 -25 c-14 -14 -78 -64 -141 -111 -139 -105 -137 -103 -124 -103 6 0 35
18 64 40 56 42 73 49 65 28 -6 -15 -127 -98 -143 -98 -5 0 -12 -3 -14 -7 -5
-13 -112 -80 -138 -87 -25 -6 -25 -6 -2 5 12 7 22 16 22 21 0 12 -51 -22 -76
-51 -14 -16 -27 -22 -38 -18 -9 4 -15 3 -12 -1 10 -16 -105 -74 -145 -74 -38
1 -109 20 -119 33 -14 18 -210 92 -245 94 -5 0 -13 4 -16 9 -4 5 -18 9 -33 9
-14 0 -26 2 -26 6 0 3 -12 7 -26 8 -15 0 -29 5 -33 10 -6 9 -18 12 -66 20 -16
3 -55 14 -85 25 -30 10 -96 32 -146 47 -50 15 -112 42 -138 59 -26 18 -50 32
-53 32 -13 0 -163 155 -169 174 -9 27 -56 99 -71 109 -7 4 -10 25 -7 55 7 75
-28 188 -102 330 -36 70 -74 136 -84 147 -18 20 -65 92 -87 133 -10 19 -9 22
7 22 10 0 43 -27 74 -61 57 -61 72 -69 37 -21 -21 31 -61 108 -61 119 0 4 23
-28 51 -70 27 -42 52 -77 54 -77 6 0 -13 64 -35 120 -43 105 -32 141 41 137
30 -2 35 -6 37 -28 3 -35 38 -137 58 -167 12 -18 18 -21 24 -12 13 20 31 1 24
-26 -5 -19 -3 -23 10 -18 11 4 14 13 10 30 -4 15 -2 24 6 24 6 0 10 6 7 13 -2
6 0 20 5 30 7 14 12 16 24 7 19 -16 44 -5 44 19 0 20 42 37 62 25 5 -4 14 -1
18 7 14 22 53 -4 75 -50 38 -79 47 -39 15 69 -11 37 -31 84 -45 104 -14 20
-25 39 -25 41 0 3 19 5 42 5 33 0 39 3 30 12 -7 7 -29 17 -49 23 -39 11 -60
38 -22 28 15 -4 20 -3 15 5 -4 7 -16 12 -27 12 -30 0 -21 42 11 51 21 6 19 7
-13 8 -35 1 -38 -1 -33 -21 3 -13 -3 -5 -14 17 -11 22 -18 30 -16 18 3 -17 -1
-23 -15 -23 -10 0 -19 -4 -19 -9 0 -4 11 -6 25 -3 17 3 25 0 25 -9 0 -10 -16
-14 -62 -14 -35 0 -66 4 -69 9 -4 4 -17 3 -29 -4 -14 -8 -40 -10 -67 -6 -32 4
-48 1 -63 -11 -10 -9 -17 -20 -14 -24 2 -4 -5 -10 -16 -14 -11 -3 -20 -10 -20
-14 0 -4 24 0 53 10 29 10 86 18 127 19 96 2 98 2 80 -10 -8 -5 -40 -10 -71
-10 -30 0 -88 -8 -127 -19 -59 -15 -72 -16 -72 -5 0 8 -4 14 -10 14 -13 0 -13
-23 1 -37 11 -11 2 -83 -11 -83 -5 0 -22 39 -39 88 -27 77 -30 82 -25 40 3
-27 1 -48 -4 -48 -4 0 -17 -8 -28 -19 -11 -10 -30 -23 -42 -30 l-21 -11 5 232
c3 157 8 234 16 237 6 2 8 -1 5 -6 -3 -5 -2 -27 3 -49 5 -21 17 -82 26 -134 9
-52 20 -102 25 -110 13 -23 11 -5 -15 135 -13 72 -32 180 -41 240 -9 61 -17
117 -19 125 -1 8 -5 -5 -10 -30z m24 -125 c0 -14 -4 -25 -9 -25 -6 0 -8 36 -2
48 5 10 11 -2 11 -23z m530 -379 c0 -11 -19 -15 -25 -6 -3 5 1 10 9 10 9 0 16
-2 16 -4z m-465 -126 c-15 -16 -41 -34 -58 -40 -36 -12 -34 -10 29 35 60 43
66 44 29 5z m315 20 c-8 -5 -19 -10 -25 -10 -5 0 -3 5 5 10 8 5 20 10 25 10 6
0 3 -5 -5 -10z m24 -45 c-7 -18 -4 -18 33 -5 26 9 27 9 9 -5 -11 -8 -28 -15
-38 -15 -10 0 -18 -6 -18 -14 0 -29 -55 -35 -63 -6 -6 22 5 33 48 48 17 6 31
11 32 11 1 1 0 -6 -3 -14z m-444 -74 c0 -11 -4 -23 -10 -26 -6 -4 -10 5 -10
19 0 14 5 26 10 26 6 0 10 -9 10 -19z m37 13 c-3 -3 -12 -4 -19 -1 -8 3 -5 6
6 6 11 1 17 -2 13 -5z m146 -16 c9 -31 2 -33 -11 -3 -6 14 -8 25 -3 25 5 0 11
-10 14 -22z m-189 -570 c-9 -14 -23 2 -17 18 4 12 8 13 14 3 4 -7 5 -17 3 -21z
m186 13 c0 -5 -9 -7 -20 -4 -11 3 -20 7 -20 9 0 2 9 4 20 4 11 0 20 -4 20 -9z
m-290 -135 c-11 -28 -20 -52 -20 -53 0 -2 -7 -3 -15 -3 -8 0 -15 6 -15 14 0
16 18 73 33 104 10 22 12 22 24 7 10 -14 8 -27 -7 -69z m93 47 c4 -18 3 -33
-2 -33 -12 0 -23 48 -15 61 8 13 10 10 17 -28z m207 4 c0 -8 -7 -14 -15 -14
-25 0 -17 17 13 26 1 1 2 -5 2 -12z m3 -44 c-7 -2 -21 -2 -30 0 -10 3 -4 5 12
5 17 0 24 -2 18 -5z m-396 -115 c-3 -7 -5 -2 -5 12 0 14 2 19 5 13 2 -7 2 -19
0 -25z"/>
<path d="M6992 7141 c-15 -9 -11 -11 142 -66 55 -19 104 -34 110 -32 6 2 -14
12 -44 22 -30 10 -85 33 -122 51 -77 39 -69 36 -86 25z"/>
<path d="M1962 7110 c0 -14 2 -19 5 -12 2 6 2 18 0 25 -3 6 -5 1 -5 -13z"/>
<path d="M2055 7090 c-4 -17 -5 -34 -2 -36 2 -3 7 10 11 27 8 42 0 50 -9 9z"/>
<path d="M3368 7078 c2 -18 8 -38 13 -44 8 -9 65 -161 92 -241 12 -39 10 -43
-25 -36 -20 4 -28 12 -31 32 -3 20 -4 18 -5 -9 0 -19 3 -44 8 -55 9 -20 9 -20
9 0 1 18 6 20 35 17 33 -4 49 -24 61 -78 4 -18 37 -65 42 -60 2 2 -9 30 -25
62 -16 33 -37 79 -45 104 -9 25 -25 70 -37 100 -11 30 -31 84 -44 120 -47 130
-56 146 -48 88z"/>
<path d="M5908 7093 c7 -3 16 -2 19 1 4 3 -2 6 -13 5 -11 0 -14 -3 -6 -6z"/>
<path d="M1951 7064 c0 -11 3 -14 6 -6 3 7 2 16 -1 19 -3 4 -6 -2 -5 -13z"/>
<path d="M2560 7059 c0 -13 5 -31 10 -39 7 -11 8 -5 4 20 -8 43 -14 51 -14 19z"/>
<path d="M6730 7045 c0 -5 5 -17 10 -25 5 -8 10 -10 10 -5 0 6 -5 17 -10 25
-5 8 -10 11 -10 5z"/>
<path d="M1935 6990 c-4 -23 -5 -44 -2 -46 3 -3 8 13 12 36 4 23 5 44 2 46 -3
3 -8 -13 -12 -36z"/>
<path d="M2035 7000 c-4 -17 -5 -34 -2 -36 2 -3 7 10 11 27 8 42 0 50 -9 9z"/>
<path d="M5319 6989 c0 -24 -2 -53 -3 -64 -2 -11 -9 -62 -15 -113 -7 -51 -11
-96 -8 -98 5 -5 9 18 23 120 4 30 10 43 15 35 4 -7 6 25 3 71 -6 93 -14 119
-15 49z"/>
<path d="M6750 6988 c0 -9 5 -20 10 -23 13 -8 13 5 0 25 -8 13 -10 13 -10 -2z"/>
<path d="M3386 6928 c2 -37 9 -78 14 -90 12 -32 11 -5 -6 82 l-13 75 5 -67z"/>
<path d="M2021 6934 c0 -11 3 -14 6 -6 3 7 2 16 -1 19 -3 4 -6 -2 -5 -13z"/>
<path d="M5463 6905 c0 -22 2 -30 4 -17 2 12 2 30 0 40 -3 9 -5 -1 -4 -23z"/>
<path d="M1918 6897 c-3 -19 -2 -25 4 -19 6 6 8 18 6 28 -3 14 -5 12 -10 -9z"/>
<path d="M2443 6860 c0 -36 2 -50 4 -32 2 17 2 47 0 65 -2 17 -4 3 -4 -33z"/>
<path d="M5930 6916 c0 -3 15 -15 33 -27 23 -17 28 -18 18 -6 -14 18 -51 42
-51 33z"/>
<path d="M2007 6895 c-3 -11 -8 -33 -11 -50 -4 -16 -9 -41 -11 -55 -46 -232
-60 -358 -70 -642 -4 -92 -2 -149 4 -152 6 -4 10 50 10 153 1 87 3 165 5 173
3 7 7 51 10 98 3 47 13 126 22 175 8 50 19 115 24 145 4 30 13 76 20 102 12
46 9 94 -3 53z"/>
<path d="M5851 6854 c0 -11 3 -14 6 -6 3 7 2 16 -1 19 -3 4 -6 -2 -5 -13z"/>
<path d="M5459 6855 c-4 -5 -7 -104 -7 -220 1 -199 1 -204 9 -100 10 120 8
336 -2 320z"/>
<path d="M6267 6688 c-5 -269 -26 -376 -92 -478 l-36 -55 38 40 c56 60 83 97
88 120 19 93 25 181 25 345 -1 104 -5 192 -10 195 -5 3 -10 -72 -13 -167z"/>
<path d="M1911 6824 c0 -11 3 -14 6 -6 3 7 2 16 -1 19 -3 4 -6 -2 -5 -13z"/>
<path d="M3672 6820 c0 -14 2 -19 5 -12 2 6 2 18 0 25 -3 6 -5 1 -5 -13z"/>
<path d="M3910 6817 c0 -17 65 -136 111 -202 26 -39 67 -88 91 -110 42 -40 37
-28 -15 34 -30 35 -125 178 -164 246 -12 22 -23 36 -23 32z"/>
<path d="M2626 6780 c8 -43 14 -51 14 -19 0 13 -5 31 -10 39 -7 11 -8 5 -4
-20z"/>
<path d="M5849 6806 c-2 -2 -2 -26 0 -53 4 -48 4 -48 12 -14 7 32 -1 78 -12
67z"/>
<path d="M6066 6798 c-2 -7 -11 -40 -21 -73 -9 -33 -18 -64 -19 -70 -2 -5 -8
-23 -14 -38 -16 -38 -15 -54 4 -61 22 -9 24 -8 18 9 -7 18 14 75 27 75 5 0 9
5 9 11 0 5 -4 8 -10 4 -6 -4 -6 4 0 22 6 15 11 52 13 81 3 51 0 65 -7 40z"/>
<path d="M5341 6723 c0 -46 2 -83 7 -83 4 0 6 26 4 57 -5 101 -9 111 -11 26z"/>
<path d="M1891 6715 c-6 -42 -10 -99 -10 -128 1 -29 4 -38 5 -22 2 17 9 72 15
123 13 113 6 133 -10 27z"/>
<path d="M3686 6765 c8 -37 14 -45 14 -19 0 10 -5 26 -10 34 -8 11 -9 7 -4
-15z"/>
<path d="M6811 6774 c0 -11 3 -14 6 -6 3 7 2 16 -1 19 -3 4 -6 -2 -5 -13z"/>
<path d="M6651 6696 c0 -44 -8 -102 -16 -130 -8 -28 -23 -96 -34 -151 -18 -97
-18 -99 0 -76 43 53 74 238 60 361 l-8 75 -2 -79z"/>
<path d="M6702 6660 c-1 -119 -16 -229 -37 -270 -8 -15 -32 -47 -54 -71 -43
-47 -47 -54 -31 -64 6 -3 10 -21 10 -38 l1 -32 15 35 c13 30 13 36 1 44 -11 7
-4 19 34 55 28 28 52 62 59 86 16 51 25 279 12 325 -7 28 -9 15 -10 -70z"/>
<path d="M3701 6704 c0 -11 3 -14 6 -6 3 7 2 16 -1 19 -3 4 -6 -2 -5 -13z"/>
<path d="M6841 6674 c0 -11 3 -14 6 -6 3 7 2 16 -1 19 -3 4 -6 -2 -5 -13z"/>
<path d="M3318 6673 c7 -3 16 -2 19 1 4 3 -2 6 -13 5 -11 0 -14 -3 -6 -6z"/>
<path d="M3711 6664 c0 -11 3 -14 6 -6 3 7 2 16 -1 19 -3 4 -6 -2 -5 -13z"/>
<path d="M5849 6409 c-1 -140 -2 -258 -3 -264 -1 -5 -7 -28 -13 -50 -7 -22
-15 -67 -18 -100 -4 -33 -20 -136 -36 -229 -17 -92 -28 -171 -25 -173 14 -14
38 94 93 415 l16 93 21 -48 c30 -67 45 -93 56 -93 6 0 10 9 10 20 0 11 11 62
25 114 14 52 25 97 25 100 0 3 4 6 9 6 5 0 12 -18 16 -40 9 -54 20 -50 21 8 0
26 8 110 17 187 9 77 17 141 17 143 0 1 -4 2 -9 2 -5 0 -13 -36 -17 -80 -8
-98 -17 -97 -15 1 1 48 -3 75 -12 81 -9 6 -9 8 1 8 7 0 4 8 -8 20 -21 21 -40
26 -40 11 0 -5 -24 -39 -52 -75 -63 -80 -66 -76 -66 78 0 59 -3 110 -6 113 -3
4 -7 -108 -7 -248z"/>
<path d="M6502 6622 c-3 -44 -57 -205 -89 -262 -14 -25 -38 -59 -54 -75 -45
-48 -34 -51 17 -6 26 23 53 41 61 41 14 0 13 -8 -8 -90 -5 -19 -9 -42 -9 -50
0 -13 1 -13 10 0 5 8 10 24 10 35 0 12 9 38 20 59 31 62 51 182 47 287 -1 52
-4 79 -5 61z"/>
<path d="M6851 6634 c0 -11 3 -14 6 -6 3 7 2 16 -1 19 -3 4 -6 -2 -5 -13z"/>
<path d="M4859 6636 c-3 -3 -40 -11 -83 -17 -42 -6 -84 -18 -92 -26 -15 -15
-20 -48 -5 -39 4 3 26 8 47 11 54 7 173 48 176 60 3 11 -34 20 -43 11z"/>
<path d="M5344 6584 c5 -64 16 -68 16 -6 0 29 -4 52 -10 52 -5 0 -8 -20 -6
-46z"/>
<path d="M2460 6582 c0 -17 4 -34 10 -37 6 -4 7 6 3 27 -8 44 -13 48 -13 10z"/>
<path d="M3860 6594 c0 -34 56 -165 92 -213 25 -33 22 -13 -4 29 -12 19 -36
73 -54 120 -18 47 -33 75 -34 64z"/>
<path d="M6856 6573 c11 -46 11 -234 0 -286 -4 -24 -21 -52 -41 -73 -22 -22
-29 -34 -19 -34 29 0 62 46 75 106 12 56 15 226 5 269 -2 11 -5 28 -5 38 -1 9
-6 17 -12 17 -8 0 -9 -11 -3 -37z"/>
<path d="M3732 6570 c0 -14 2 -19 5 -12 2 6 2 18 0 25 -3 6 -5 1 -5 -13z"/>
<path d="M3941 6574 c0 -11 3 -14 6 -6 3 7 2 16 -1 19 -3 4 -6 -2 -5 -13z"/>
<path d="M2381 6564 c0 -11 3 -14 6 -6 3 7 2 16 -1 19 -3 4 -6 -2 -5 -13z"/>
<path d="M4150 6551 c0 -5 5 -13 10 -16 6 -3 10 -2 10 4 0 5 -4 13 -10 16 -5
3 -10 2 -10 -4z"/>
<path d="M6072 6535 c0 -16 2 -22 5 -12 2 9 2 23 0 30 -3 6 -5 -1 -5 -18z"/>
<path d="M3746 6475 c7 -93 13 -137 19 -143 9 -9 4 62 -10 138 l-14 75 5 -70z"/>
<path d="M2471 6510 c0 -14 4 -32 9 -40 9 -13 10 -13 9 0 -1 8 -5 26 -9 40
l-8 25 -1 -25z"/>
<path d="M5353 6342 c1 -101 6 -186 10 -189 10 -6 6 298 -4 342 -4 17 -7 -53
-6 -153z"/>
<path d="M3961 6495 c1 -19 18 -51 18 -35 0 8 -4 22 -9 30 -5 8 -9 11 -9 5z"/>
<path d="M1873 6455 c0 -22 2 -30 4 -17 2 12 2 30 0 40 -3 9 -5 -1 -4 -23z"/>
<path d="M2401 6436 c4 -25 16 -74 25 -108 13 -51 15 -89 10 -193 -5 -89 -3
-125 4 -115 5 8 10 22 10 31 0 9 7 20 16 23 20 8 13 75 -28 256 -29 128 -55
204 -37 106z"/>
<path d="M3085 6470 c-3 -5 1 -10 9 -10 8 0 18 5 21 10 3 6 -1 10 -9 10 -8 0
-18 -4 -21 -10z"/>
<path d="M2709 6450 c-6 -60 5 -317 13 -325 7 -7 9 2 6 27 -2 20 -1 36 2 36
19 -2 20 5 5 28 -9 15 -12 23 -6 20 6 -4 20 -26 31 -48 17 -35 18 -47 9 -84
-12 -47 -6 -94 12 -94 6 0 20 -11 31 -25 11 -14 23 -25 28 -25 10 0 -10 80
-50 199 -16 47 -36 129 -46 181 -17 95 -32 142 -35 110z"/>
<path d="M2483 6424 c3 -11 11 -67 18 -126 7 -60 17 -108 21 -108 30 0 34 123
6 200 -12 34 -12 35 -19 10 l-7 -25 -1 27 c-1 15 -6 30 -12 34 -7 4 -9 0 -6
-12z"/>
<path d="M1871 6394 c0 -11 3 -14 6 -6 3 7 2 16 -1 19 -3 4 -6 -2 -5 -13z"/>
<path d="M5156 6371 c-23 -43 -19 -52 5 -13 12 18 19 35 16 38 -3 3 -13 -8
-21 -25z"/>
<path d="M5442 6355 c0 -16 2 -22 5 -12 2 9 2 23 0 30 -3 6 -5 -1 -5 -18z"/>
<path d="M6803 6297 c-30 -69 -33 -72 -70 -78 l-38 -6 33 -2 c53 -2 69 13 91
86 11 37 19 68 18 70 -2 1 -17 -30 -34 -70z"/>
<path d="M1871 6344 c0 -11 3 -14 6 -6 3 7 2 16 -1 19 -3 4 -6 -2 -5 -13z"/>
<path d="M1872 6290 c0 -19 2 -27 5 -17 2 9 2 25 0 35 -3 9 -5 1 -5 -18z"/>
<path d="M3761 6304 c0 -11 3 -14 6 -6 3 7 2 16 -1 19 -3 4 -6 -2 -5 -13z"/>
<path d="M6304 6278 c-15 -23 -37 -53 -48 -65 -11 -13 -14 -23 -8 -23 7 0 12
-12 13 -27 0 -16 3 -21 6 -13 3 8 15 25 26 37 11 13 21 31 22 41 0 10 7 33 14
50 21 49 6 49 -25 0z"/>
<path d="M2625 6277 c-4 -10 -5 -21 -1 -24 10 -10 18 4 13 24 -4 17 -4 17 -12
0z"/>
<path d="M3762 6255 c0 -16 2 -22 5 -12 2 9 2 23 0 30 -3 6 -5 -1 -5 -18z"/>
<path d="M5089 6253 c-23 -47 -22 -49 5 -14 29 38 30 41 18 41 -5 0 -15 -12
-23 -27z"/>
<path d="M3290 6218 c0 -14 20 -37 48 -53 20 -11 0 25 -27 49 -17 15 -21 16
-21 4z"/>
<path d="M3761 6204 c0 -11 3 -14 6 -6 3 7 2 16 -1 19 -3 4 -6 -2 -5 -13z"/>
<path d="M3530 6203 c0 -15 -89 -75 -100 -68 -5 3 -12 0 -16 -6 -5 -8 -2 -10
7 -5 8 4 5 0 -5 -8 -24 -20 -15 -30 16 -20 13 4 25 8 28 9 5 0 39 23 81 55 18
14 19 17 5 35 -9 11 -16 15 -16 8z"/>
<path d="M5041 6183 c-7 -8 -11 -16 -8 -19 2 -2 10 2 17 11 17 20 9 27 -9 8z"/>
<path d="M2586 6182 c-4 -7 -4 -17 -1 -22 4 -6 1 -9 -6 -8 -7 2 -22 -15 -33
-37 -12 -22 -24 -41 -28 -43 -5 -2 -8 -8 -8 -14 0 -5 -9 -17 -21 -27 -20 -16
-20 -20 -10 -131 6 -63 11 -146 12 -185 1 -94 17 -56 18 43 1 39 5 72 11 72 5
0 7 -6 4 -14 -3 -8 -1 -17 4 -20 6 -3 15 24 22 62 7 37 24 91 37 120 29 61 50
169 39 197 -5 15 -9 16 -15 6 -7 -11 -9 -11 -13 0 -3 10 -6 10 -12 1z"/>
<path d="M6201 6145 c-23 -40 -25 -45 -13 -45 10 0 45 70 39 77 -3 2 -14 -12
-26 -32z"/>
<path d="M6759 6153 c-16 -4 -27 -26 -25 -46 1 -5 30 -10 66 -12 41 -2 58 0
45 5 -11 5 -38 9 -60 10 l-40 1 28 24 c27 24 23 28 -14 18z"/>
<path d="M4990 6125 c-13 -14 -20 -25 -15 -25 7 0 45 39 45 47 0 7 -8 2 -30
-22z"/>
<path d="M6874 6056 c-2 -20 4 -26 28 -31 16 -4 32 -4 35 -1 4 3 -1 6 -11 6
-9 0 -21 11 -26 25 -12 32 -25 32 -26 1z"/>
<path d="M5362 5970 c0 -14 2 -19 5 -12 2 6 2 18 0 25 -3 6 -5 1 -5 -13z"/>
<path d="M1922 5950 c0 -19 2 -27 5 -17 2 9 2 25 0 35 -3 9 -5 1 -5 -18z"/>
<path d="M2425 5969 c-2 -8 -16 -54 -30 -103 -46 -159 -139 -358 -187 -398
l-20 -18 24 0 c13 0 28 4 33 8 6 5 39 19 75 31 36 13 75 28 88 34 18 8 25 8
31 -1 5 -9 11 -4 20 14 6 15 9 29 6 32 -6 6 -89 -21 -149 -49 -54 -26 -58 -24
-36 14 56 95 172 428 155 445 -2 3 -7 -1 -10 -9z"/>
<path d="M7100 5920 c0 -5 5 -10 11 -10 5 0 7 5 4 10 -3 6 -8 10 -11 10 -2 0
-4 -4 -4 -10z"/>
<path d="M1921 5894 c0 -11 3 -14 6 -6 3 7 2 16 -1 19 -3 4 -6 -2 -5 -13z"/>
<path d="M2275 5828 c-4 -34 -16 -91 -27 -127 -32 -106 -32 -107 -20 -96 26
25 80 285 59 285 -3 0 -8 -28 -12 -62z"/>
<path d="M6988 5863 c5 -21 7 -23 10 -9 2 10 0 22 -6 28 -6 6 -7 0 -4 -19z"/>
<path d="M1925 5833 c2 -16 7 -54 10 -86 6 -67 35 -178 66 -255 26 -63 36 -64
13 -1 -20 57 -61 238 -69 312 -4 31 -11 57 -16 57 -5 0 -7 -12 -4 -27z"/>
<path d="M7222 5830 c0 -14 2 -19 5 -12 2 6 2 18 0 25 -3 6 -5 1 -5 -13z"/>
<path d="M5446 5768 c-11 -61 -68 -432 -77 -498 -25 -191 -39 -310 -44 -373
-4 -37 -8 -82 -10 -99 -8 -63 -8 -374 0 -366 3 3 7 90 10 194 4 166 36 519 49
531 2 2 18 -3 35 -12 26 -13 31 -22 31 -50 0 -19 4 -35 8 -35 4 0 7 12 6 28
-1 15 -3 47 -5 72 -1 31 -3 37 -6 18 -5 -33 -6 -33 -41 -11 -15 9 -28 17 -29
18 -5 2 38 274 51 325 13 53 14 49 15 -124 1 -99 4 -176 7 -173 8 8 17 577 9
577 -2 0 -6 -10 -9 -22z"/>
<path d="M6760 5770 c0 -5 5 -10 10 -10 6 0 10 5 10 10 0 6 -4 10 -10 10 -5 0
-10 -4 -10 -10z"/>
<path d="M6790 5753 c0 -5 10 -18 23 -29 l22 -19 -20 25 c-11 14 -21 27 -22
29 -2 2 -3 0 -3 -6z"/>
<path d="M5331 5734 c0 -11 3 -14 6 -6 3 7 2 16 -1 19 -3 4 -6 -2 -5 -13z"/>
<path d="M7760 5667 c0 -3 18 -24 40 -46 l41 -41 -26 -12 c-35 -16 -31 -29 5
-17 37 13 38 26 2 64 -30 34 -62 61 -62 52z"/>
<path d="M5702 5630 c0 -14 2 -19 5 -12 2 6 2 18 0 25 -3 6 -5 1 -5 -13z"/>
<path d="M4450 5592 c0 -17 -54 -67 -90 -84 -40 -19 -69 -23 -90 -15 -28 10
-112 28 -116 24 -7 -6 38 -24 93 -37 38 -8 57 -9 72 0 12 6 21 8 21 5 0 -6 49
24 81 50 38 31 52 52 39 60 -5 3 -10 2 -10 -3z"/>
<path d="M5736 5529 c-10 -52 -19 -344 -10 -336 5 4 9 22 10 40 1 18 5 92 8
165 4 73 10 140 13 148 3 8 1 14 -5 14 -5 0 -12 -14 -16 -31z"/>
<path d="M6559 5493 c-13 -15 -12 -15 9 -4 23 12 28 21 13 21 -5 0 -15 -7 -22
-17z"/>
<path d="M7874 5495 c28 -12 29 -13 8 -19 -12 -4 -22 -13 -22 -19 1 -14 70
-61 70 -48 0 5 -11 16 -25 25 -35 23 -31 35 15 42 22 4 40 10 40 14 0 9 -52
20 -89 19 l-26 -1 29 -13z"/>
<path d="M5701 5454 c0 -11 3 -14 6 -6 3 7 2 16 -1 19 -3 4 -6 -2 -5 -13z"/>
<path d="M6393 5403 c-10 -15 -14 -15 -21 -4 -10 14 -37 5 -66 -25 -18 -17
-22 -69 -6 -79 6 -4 10 8 10 29 0 38 22 58 56 50 12 -2 25 5 37 21 10 14 14
25 10 25 -4 0 -13 -8 -20 -17z"/>
<path d="M2100 5396 c-31 -11 -166 -91 -180 -106 -3 -3 -31 -22 -63 -43 -31
-20 -65 -44 -75 -52 -9 -8 -62 -48 -117 -89 -55 -41 -113 -87 -130 -101 -16
-15 -59 -52 -95 -83 -88 -76 -307 -298 -321 -325 -6 -12 62 51 152 139 217
214 342 323 494 430 69 49 221 144 230 144 7 0 145 92 145 96 0 5 1 5 -40 -10z"/>
<path d="M7975 5370 c4 -8 15 -23 23 -32 8 -10 12 -24 9 -32 -5 -13 0 -13 41
0 26 7 51 14 55 14 5 0 5 5 2 10 -3 6 -26 10 -50 10 -33 0 -50 6 -66 23 -12
12 -18 15 -14 7z"/>
<path d="M2522 5294 c-30 -108 -27 -129 4 -29 13 44 23 87 21 95 -1 8 -13 -21
-25 -66z"/>
<path d="M5695 5361 c-3 -5 -1 -12 5 -16 5 -3 10 1 10 9 0 18 -6 21 -15 7z"/>
<path d="M6181 5333 c-13 -34 -31 -116 -26 -121 2 -2 11 23 20 55 9 32 18 66
21 76 8 27 -2 20 -15 -10z"/>
<path d="M5701 5274 c0 -11 3 -14 6 -6 3 7 2 16 -1 19 -3 4 -6 -2 -5 -13z"/>
<path d="M4797 5217 c-63 -44 -72 -64 -10 -23 52 35 77 55 72 59 -2 2 -30 -14
-62 -36z"/>
<path d="M5696 5242 c-2 -4 -1 -14 5 -22 7 -12 9 -10 9 8 0 23 -5 28 -14 14z"/>
<path d="M6100 5236 c0 -9 5 -16 10 -16 6 0 10 4 10 9 0 6 -4 13 -10 16 -5 3
-10 -1 -10 -9z"/>
<path d="M7291 5197 c-111 -12 -189 -57 -313 -179 -65 -65 -138 -160 -154
-201 -4 -11 4 -17 25 -22 46 -10 47 -23 2 -41 -25 -10 -62 -41 -100 -84 -66
-74 -74 -91 -38 -83 21 4 22 4 3 -11 -11 -9 -29 -16 -40 -16 -32 0 -48 -15
-44 -41 2 -16 -6 -32 -22 -48 -17 -16 -21 -25 -12 -28 18 -7 4 -23 -19 -23
-12 0 -19 -7 -19 -19 0 -24 -19 -31 -90 -31 l-57 0 -7 -62 c-13 -117 -14 -118
-57 -41 -58 101 -62 107 -164 248 -79 109 -262 304 -337 357 -33 24 -70 51
-83 61 -32 24 -44 85 -21 103 12 8 13 13 5 16 -9 3 -12 24 -10 66 2 49 -1 62
-12 62 -9 0 -18 6 -20 13 -6 13 -1 -105 9 -243 6 -89 41 -301 51 -310 3 -3 2
15 -2 40 -14 84 -31 250 -25 250 5 0 43 -24 65 -42 76 -61 145 -128 230 -223
39 -42 75 -85 80 -94 6 -9 35 -50 67 -91 136 -180 253 -398 245 -459 -2 -20
-11 -90 -20 -156 -9 -66 -23 -205 -32 -310 -9 -104 -20 -211 -26 -237 -14 -62
-65 -194 -70 -180 -2 6 -9 0 -16 -14 -10 -22 -10 -24 3 -14 12 11 13 7 7 -21
-4 -19 -6 -45 -4 -59 2 -14 3 -88 2 -165 -2 -148 -15 -205 -74 -336 -14 -30
-37 -81 -52 -114 -15 -33 -37 -73 -48 -89 -15 -22 -17 -30 -7 -36 10 -6 5 -21
-19 -64 -32 -55 -32 -58 -29 -166 3 -102 2 -109 -15 -104 -31 10 -244 6 -263
-4 -11 -6 -35 -42 -53 -81 -30 -61 -37 -69 -53 -60 -21 11 -54 -2 -78 -32 -13
-15 -199 -73 -208 -64 -2 1 22 17 53 34 30 17 55 36 55 42 0 9 -78 -30 -170
-85 -54 -32 -93 -45 -255 -81 -92 -21 -154 -30 -161 -25 -6 5 -21 7 -35 4 -13
-2 -46 -7 -74 -11 -27 -3 -59 -12 -70 -18 -24 -15 -350 -26 -435 -16 l-55 7
85 85 c47 46 79 79 71 72 -20 -16 -53 7 -91 65 -43 67 -89 126 -106 135 -19
11 -18 -7 2 -24 9 -7 36 -48 61 -92 30 -52 54 -82 71 -88 l26 -10 -34 -27
c-39 -30 -110 -104 -110 -113 0 -3 -22 -9 -49 -12 -36 -4 -60 -1 -88 12 -21
10 -53 24 -70 32 -18 8 -33 20 -33 27 0 9 -16 11 -59 8 -64 -4 -66 -1 -33 51
19 31 9 57 -17 44 -14 -8 -20 -7 -24 3 -8 20 45 66 75 66 32 0 47 19 27 34 -8
6 -23 21 -33 34 l-19 22 48 -6 c62 -7 171 -56 197 -89 11 -14 24 -25 29 -25
10 0 12 57 3 112 -10 60 -25 44 -18 -18 l7 -56 -43 27 c-60 38 -144 65 -203
65 l-51 0 27 -28 c15 -15 27 -33 27 -39 0 -6 -21 -13 -47 -16 -27 -2 -67 -12
-91 -21 -47 -18 -98 -14 -407 34 -71 11 -136 20 -143 20 -7 0 -19 15 -27 32
-8 18 -20 40 -27 48 -14 17 -105 70 -119 70 -13 0 -105 40 -178 77 -62 32
-114 42 -125 24 -4 -5 3 -7 14 -4 12 3 52 -11 100 -36 44 -23 104 -50 133 -60
28 -10 70 -28 92 -40 22 -11 45 -21 52 -21 20 0 43 -44 63 -117 23 -87 30
-107 81 -218 31 -68 41 -135 20 -136 -30 -1 22 -18 59 -19 30 0 33 -2 18 -13
-9 -7 -31 -44 -48 -81 -30 -64 -32 -74 -27 -141 4 -39 11 -83 16 -96 7 -17 8
1 4 62 -4 56 -1 98 7 123 19 57 87 150 131 177 23 15 39 32 39 44 0 29 38 146
56 173 25 38 35 16 29 -63 -7 -75 6 -109 24 -63 11 29 37 52 50 44 13 -8 100
13 126 31 31 21 39 15 20 -13 -19 -29 -7 -56 17 -37 7 6 29 9 49 8 52 -5 144
-39 144 -54 0 -7 -29 -27 -64 -44 -61 -30 -89 -57 -59 -57 17 0 90 -99 128
-174 30 -58 40 -116 20 -116 -5 0 -10 -26 -10 -57 0 -70 -13 -97 -34 -71 -34
45 -35 22 -8 -172 6 -36 9 -66 8 -67 -1 -1 -21 7 -44 17 -39 18 -72 18 -72 0
0 -4 17 -43 37 -86 21 -43 39 -82 41 -86 7 -15 -30 -8 -56 10 -15 10 -40 24
-56 32 -16 8 -50 34 -75 58 -68 62 -71 59 -41 -32 11 -33 20 -63 20 -68 0 -18
-16 -6 -39 30 -14 20 -40 54 -60 74 -19 20 -57 76 -85 124 -73 125 -80 123
-73 -19 5 -115 2 -157 -13 -157 -13 0 -31 61 -37 128 -3 34 -10 65 -14 68 -5
3 -9 -1 -9 -10 0 -22 -38 -106 -48 -106 -14 0 -9 225 6 243 11 13 9 20 -15 47
l-28 31 5 -81 c5 -78 4 -81 -15 -75 -11 4 -51 10 -90 14 -38 4 -88 17 -111 29
-22 11 -87 71 -145 132 -59 64 -135 133 -176 161 -40 27 -73 53 -73 57 0 4
-14 16 -31 26 -17 10 -28 20 -25 23 3 3 22 -4 42 -17 21 -12 32 -15 26 -7 -6
7 -28 22 -49 33 -20 10 -75 42 -123 70 -48 28 -103 57 -123 65 -37 13 -121 89
-99 89 7 0 35 -11 64 -25 28 -14 64 -25 80 -25 15 0 28 -4 28 -8 0 -11 51 -38
85 -45 29 -6 29 -6 -5 9 -19 9 -47 25 -61 35 -15 10 -35 19 -46 19 -10 0 -31
7 -48 16 -52 28 -108 42 -176 46 -65 4 -68 5 -123 58 -32 30 -79 69 -105 85
-27 17 -70 45 -97 62 -27 18 -64 36 -83 39 -33 7 -33 7 -28 50 5 48 -9 61 -19
17 -7 -37 -37 -103 -46 -103 -13 0 -27 -67 -29 -145 -5 -149 1 -285 11 -285 7
0 10 58 9 163 -2 236 13 300 61 269 16 -10 18 -9 14 6 -3 9 2 4 11 -12 23 -39
16 -105 -20 -181 l-27 -60 11 -130 c9 -95 9 -168 2 -270 -12 -157 -13 -301 -3
-327 6 -15 133 -98 149 -98 2 0 21 -12 41 -26 l37 -25 -60 7 c-33 4 -80 13
-105 20 -25 8 -47 14 -50 14 -3 0 -6 -130 -6 -289 -1 -199 -5 -295 -13 -310
-7 -12 -15 -53 -18 -92 l-6 -69 2252 0 c2238 0 2253 0 2278 20 l26 20 -51 0
c-67 0 -73 14 -17 36 35 13 44 21 40 34 -4 14 15 29 90 70 52 29 95 57 95 62
0 4 -11 8 -25 8 -14 0 -25 4 -25 9 0 20 -74 30 -285 37 -433 15 -639 8 -715
-24 -63 -27 -334 -67 -366 -55 -16 6 -15 8 11 15 17 4 104 28 195 53 l165 45
395 7 c217 4 433 6 480 6 l85 -2 36 -40 c44 -49 62 -54 27 -8 -14 17 -28 42
-32 54 -6 20 -5 21 22 14 16 -5 38 -13 48 -19 43 -23 108 -23 189 -2 56 15
120 23 210 26 72 2 184 8 250 13 126 9 240 -5 268 -34 17 -16 209 -39 275 -33
28 3 58 12 67 21 10 10 32 17 56 17 43 0 46 4 24 26 -25 26 -17 34 20 18 49
-20 59 -18 72 16 l11 30 86 0 c62 0 86 3 86 13 0 6 -43 43 -95 82 -52 38 -95
73 -95 78 0 9 97 1 165 -14 22 -5 79 -9 127 -9 79 0 88 2 102 22 9 12 16 34
16 49 0 41 76 296 99 332 11 18 31 55 45 82 13 28 36 66 50 85 l27 35 -32 3
c-18 2 -52 -1 -75 -7 -50 -13 -104 -14 -104 -3 1 4 30 25 66 47 36 22 73 47
82 55 9 8 31 26 47 39 28 21 30 27 30 89 0 54 6 78 29 124 27 53 28 61 18 95
-7 21 -13 58 -15 83 -2 40 -4 45 -24 43 -17 -2 -23 3 -25 20 0 12 -2 27 -3 32
-2 6 -4 15 -5 20 -3 16 -30 -88 -30 -118 0 -30 24 -47 43 -28 6 6 15 11 19 11
11 0 10 -58 -2 -65 -13 -8 -48 12 -83 47 -16 15 -39 28 -53 28 -20 0 -30 12
-60 75 -20 41 -40 77 -44 80 -13 8 -20 -23 -20 -93 0 -60 -1 -65 -16 -51 -21
22 -39 99 -63 265 -11 77 -25 151 -30 165 -10 26 -8 28 -32 -49 -12 -40 -93
-142 -104 -131 -3 3 15 85 40 183 25 97 45 189 45 204 0 15 -13 61 -29 102
-25 66 -29 92 -34 225 -7 165 -61 553 -86 617 -14 35 -13 3 3 -93 34 -193 47
-336 52 -541 3 -120 3 -218 1 -218 -3 0 -25 42 -49 92 l-46 93 -5 135 c-6 144
-34 385 -47 409 -4 8 -6 -19 -4 -60 3 -65 2 -68 -6 -29 -9 48 -28 172 -61 395
-23 156 -39 635 -21 635 5 0 12 -13 15 -30 9 -41 73 -212 113 -298 19 -40 34
-75 34 -78 0 -13 106 -182 148 -236 42 -54 117 -124 192 -179 57 -42 68 -43
20 -2 -110 92 -217 212 -276 308 -58 96 -138 266 -165 350 -7 22 -29 88 -50
146 -20 58 -40 128 -44 155 -4 27 -17 108 -30 179 -13 72 -26 150 -30 175 -9
58 -42 175 -63 220 -29 63 -90 225 -86 229 2 2 10 -2 19 -9 21 -18 30 -6 29
41 -1 32 2 39 15 35 52 -16 67 -16 86 -1 19 14 17 15 -22 9 -31 -5 -50 -2 -67
10 -37 24 -41 20 -37 -30 l3 -46 -23 16 c-13 8 -46 39 -74 68 -38 40 -51 49
-53 35 -4 -21 -11 -21 -37 -3 -29 19 -61 23 -144 13z m280 -202 c34 -47 109
-209 109 -234 0 -6 -7 -11 -15 -11 -12 0 -11 -4 5 -20 11 -11 20 -29 20 -39 0
-10 13 -93 29 -182 46 -263 53 -324 58 -514 4 -149 2 -190 -12 -240 -9 -33
-21 -78 -26 -99 -15 -58 -32 -81 -23 -31 12 74 14 90 23 226 6 75 7 183 4 240
l-7 104 -15 -104 -16 -103 -1 258 0 259 -43 124 c-24 68 -63 167 -88 220 -46
98 -93 224 -93 248 0 16 39 -28 91 -102z m166 -977 c-3 -8 -6 -5 -6 6 -1 11 2
17 5 13 3 -3 4 -12 1 -19z m-47 -168 c-7 -60 -16 -110 -21 -110 -33 0 -35 11
-13 78 12 37 25 86 29 110 14 84 18 31 5 -78z m-25 -141 c4 -6 5 -12 2 -15 -7
-7 -37 7 -37 17 0 13 27 11 35 -2z m25 -100 c0 -21 4 -39 10 -41 5 -1 -9 -55
-32 -118 -22 -63 -52 -150 -65 -193 -14 -43 -26 -77 -28 -75 -2 2 3 50 10 108
7 58 19 169 25 247 l13 141 33 -16 c30 -14 34 -20 34 -53z m-105 -501 c-4 -18
-12 -37 -17 -43 -7 -7 -8 0 -3 20 4 17 8 36 8 43 0 6 4 12 9 12 5 0 7 -15 3
-32z m-30 -148 l-15 -65 4 62 c2 34 8 67 12 74 15 24 14 -7 -1 -71z m-81 -434
c-3 -21 -8 -35 -11 -32 -2 2 -1 20 3 40 3 21 8 35 11 32 2 -2 1 -20 -3 -40z
m-97 -468 c-3 -8 -6 -5 -6 6 -1 11 2 17 5 13 3 -3 4 -12 1 -19z m-27 -337 c-5
-20 -25 -61 -45 -91 -19 -30 -35 -59 -35 -64 0 -5 -3 -7 -6 -4 -7 7 22 159 38
203 6 17 18 38 27 48 15 18 16 17 23 -18 5 -21 4 -54 -2 -74z m-142 -310 c-3
-37 -19 -92 -47 -159 -24 -57 -45 -101 -47 -100 -2 2 15 52 37 111 22 59 42
136 46 170 8 75 17 58 11 -22z m-220 -556 c-6 -14 -13 -23 -15 -21 -5 5 15 46
22 46 3 0 -1 -11 -7 -25z m-135 -272 c-7 -45 -23 -80 -52 -110 -12 -12 -21
-29 -21 -38 0 -8 -4 -15 -8 -15 -5 0 -14 -11 -20 -25 -6 -14 -16 -25 -22 -25
-6 0 -8 6 -4 13 6 10 4 10 -7 0 -7 -7 -20 -13 -28 -13 -7 0 4 13 27 30 31 22
44 40 52 72 6 24 14 52 17 63 4 15 60 83 70 85 1 0 -1 -17 -4 -37z m-2198
-335 c55 -7 92 -14 82 -16 -9 -2 -65 1 -124 7 -58 6 -128 11 -155 11 -31 0
-47 4 -43 10 7 11 63 8 240 -12z m158 -25 c-7 -2 -19 -2 -25 0 -7 3 -2 5 12 5
14 0 19 -2 13 -5z m220 -10 c-7 -2 -19 -2 -25 0 -7 3 -2 5 12 5 14 0 19 -2 13
-5z"/>
<path d="M6100 5140 c0 -5 5 -10 11 -10 5 0 7 5 4 10 -3 6 -8 10 -11 10 -2 0
-4 -4 -4 -10z"/>
<path d="M7972 5060 c0 -14 2 -19 5 -12 2 6 2 18 0 25 -3 6 -5 1 -5 -13z"/>
<path d="M5820 5066 c0 -2 7 -7 16 -10 8 -3 12 -2 9 4 -6 10 -25 14 -25 6z"/>
<path d="M5440 5030 c0 -11 5 -20 10 -20 6 0 10 9 10 20 0 11 -4 20 -10 20 -5
0 -10 -9 -10 -20z"/>
<path d="M7980 5024 c0 -5 7 -20 16 -33 13 -17 14 -25 5 -31 -8 -4 9 -17 44
-34 52 -24 65 -46 28 -46 -9 0 -14 -2 -11 -5 8 -9 58 6 58 16 0 5 -23 20 -50
34 -28 14 -49 29 -46 33 2 4 -7 23 -20 42 -13 19 -24 30 -24 24z"/>
<path d="M5442 4969 c1 -17 6 -33 10 -35 5 -3 7 11 6 30 -2 20 -6 36 -11 36
-4 0 -6 -14 -5 -31z"/>
<path d="M5283 4905 c0 -38 2 -53 4 -32 2 20 2 52 0 70 -2 17 -4 1 -4 -38z"/>
<path d="M5440 4895 c0 -14 5 -25 10 -25 6 0 10 11 10 25 0 14 -4 25 -10 25
-5 0 -10 -11 -10 -25z"/>
<path d="M8006 4823 c19 -25 44 -64 55 -85 11 -22 23 -38 26 -35 11 11 -86
166 -104 167 -7 0 3 -21 23 -47z"/>
<path d="M8018 4863 c7 -3 16 -2 19 1 4 3 -2 6 -13 5 -11 0 -14 -3 -6 -6z"/>
<path d="M5452 4791 c-1 -41 2 -71 6 -65 5 5 6 38 2 74 l-7 65 -1 -74z"/>
<path d="M5045 4813 c-38 -8 -74 -18 -80 -22 -5 -5 -28 -12 -50 -16 -22 -4
-44 -10 -50 -13 -5 -4 -28 -12 -50 -18 -22 -6 -71 -23 -110 -38 -38 -15 -115
-43 -170 -63 -55 -19 -118 -44 -141 -54 -22 -10 -44 -19 -48 -19 -9 0 -92 -36
-127 -55 -14 -8 -52 -24 -85 -36 -32 -12 -63 -25 -69 -29 -5 -4 -65 -35 -131
-69 -67 -34 -127 -68 -134 -76 -7 -8 -18 -15 -25 -15 -7 0 -19 -7 -26 -16 -12
-15 -11 -16 11 -9 14 4 117 55 229 112 112 58 215 109 230 113 14 5 60 23 101
40 41 18 89 36 105 40 17 5 55 18 85 30 105 41 215 82 260 96 25 8 59 21 75
28 17 8 46 17 65 21 19 4 40 11 45 14 9 7 68 21 153 37 12 2 22 11 22 19 0 17
5 18 -85 -2z"/>
<path d="M5281 4804 c0 -11 3 -14 6 -6 3 7 2 16 -1 19 -3 4 -6 -2 -5 -13z"/>
<path d="M5281 4754 c0 -11 3 -14 6 -6 3 7 2 16 -1 19 -3 4 -6 -2 -5 -13z"/>
<path d="M5464 4608 c9 -108 16 -157 27 -183 7 -16 8 -14 5 10 -3 17 -10 81
-17 143 -13 129 -25 152 -15 30z"/>
<path d="M8091 4688 c-1 -12 31 -89 35 -85 3 2 -4 24 -15 48 -11 24 -20 41
-20 37z"/>
<path d="M5766 4613 c18 -77 35 -137 40 -142 4 -3 4 5 1 19 -3 14 -11 51 -17
83 -6 31 -15 57 -20 57 -4 0 -6 -8 -4 -17z"/>
<path d="M8134 4541 c1 -33 5 -51 14 -51 16 0 15 30 -2 70 l-13 32 1 -51z"/>
<path d="M8006 4538 c-3 -18 -7 -63 -10 -101 -5 -69 -36 -157 -55 -157 -12 0
-26 44 -18 57 8 14 -12 53 -28 53 -11 0 -15 -12 -15 -51 0 -46 -2 -50 -20 -44
-14 5 -20 2 -20 -9 0 -10 9 -16 25 -16 21 0 27 6 32 33 l7 32 6 -30 c4 -23 10
-30 29 -30 36 0 58 53 73 170 6 55 13 101 14 103 1 2 14 -4 28 -14 15 -9 28
-15 31 -13 2 3 -14 14 -35 27 l-39 22 -5 -32z"/>
<path d="M1038 4508 c-30 -38 -90 -131 -76 -118 22 19 126 160 119 160 -5 0
-24 -19 -43 -42z"/>
<path d="M1460 4527 c0 -2 37 -10 83 -16 45 -7 120 -21 167 -31 47 -10 119
-26 160 -35 41 -9 120 -27 175 -39 55 -13 136 -31 180 -40 44 -9 98 -21 120
-26 22 -5 69 -16 105 -24 36 -8 83 -18 105 -21 47 -7 100 -21 172 -45 56 -19
64 -7 15 22 -27 16 -221 64 -317 78 -27 4 -124 25 -215 45 -91 21 -183 41
-205 46 -22 5 -83 18 -135 29 -184 41 -410 72 -410 57z"/>
<path d="M5686 4415 c7 -72 39 -273 60 -370 23 -102 88 -284 99 -274 2 3 -9
44 -25 91 -38 113 -63 214 -90 368 -12 69 -28 152 -35 185 l-14 60 5 -60z"/>
<path d="M5816 4430 c7 -40 24 -76 23 -50 0 8 -7 31 -15 50 l-14 35 6 -35z"/>
<path d="M3855 4418 c-43 -31 -95 -80 -95 -91 0 -5 21 7 48 27 26 20 56 41 67
45 12 5 27 16 34 25 21 25 -17 21 -54 -6z"/>
<path d="M5322 4395 c0 -16 2 -22 5 -12 2 9 2 23 0 30 -3 6 -5 -1 -5 -18z"/>
<path d="M5501 4363 c-1 -27 53 -191 68 -206 6 -6 2 14 -9 44 -10 30 -28 83
-38 119 -11 36 -21 55 -21 43z"/>
<path d="M2710 4335 c52 -32 70 -41 70 -31 0 6 -108 66 -117 66 -5 0 17 -16
47 -35z"/>
<path d="M5841 4350 c0 -8 4 -24 9 -35 5 -13 9 -14 9 -5 0 8 -4 24 -9 35 -5
13 -9 14 -9 5z"/>
<path d="M5782 4263 c16 -35 68 -120 68 -111 0 9 -70 138 -76 138 -2 0 2 -12
8 -27z"/>
<path d="M3920 4270 c-22 -7 -21 -8 12 -9 20 -1 40 4 43 9 7 12 -19 12 -55 0z"/>
<path d="M7960 4240 c6 -11 15 -20 20 -20 6 0 5 9 -2 20 -7 11 -16 20 -21 20
-4 0 -3 -9 3 -20z"/>
<path d="M5880 4234 c0 -15 50 -137 61 -148 5 -6 9 -8 9 -5 0 11 -69 164 -70
153z"/>
<path d="M8004 4202 c4 -6 36 -29 72 -51 39 -23 60 -41 52 -44 -7 -3 5 -6 27
-6 l40 0 -68 34 c-38 19 -82 45 -100 57 -17 12 -27 17 -23 10z"/>
<path d="M2643 4193 c9 -2 25 -2 35 0 9 3 1 5 -18 5 -19 0 -27 -2 -17 -5z"/>
<path d="M5585 4130 c3 -5 8 -10 11 -10 2 0 4 5 4 10 0 6 -5 10 -11 10 -5 0
-7 -4 -4 -10z"/>
<path d="M5868 4105 c30 -60 107 -149 155 -180 l42 -27 -52 52 c-29 28 -74 79
-99 113 -63 83 -70 89 -46 42z"/>
<path d="M5600 4091 c0 -6 5 -13 10 -16 6 -3 10 1 10 9 0 9 -4 16 -10 16 -5 0
-10 -4 -10 -9z"/>
<path d="M8039 4053 c12 -24 31 -39 31 -25 0 5 -10 17 -21 28 -22 19 -22 19
-10 -3z"/>
<path d="M5620 4051 c0 -11 39 -90 50 -101 5 -5 8 -10 60 -95 36 -60 85 -115
143 -161 50 -40 83 -46 35 -6 -79 65 -137 134 -195 230 -35 56 -63 106 -63
111 0 5 -7 14 -15 21 -11 9 -15 9 -15 1z"/>
<path d="M8070 4006 c0 -2 8 -10 18 -17 15 -13 16 -12 3 4 -13 16 -21 21 -21
13z"/>
<path d="M761 3984 c0 -11 3 -14 6 -6 3 7 2 16 -1 19 -3 4 -6 -2 -5 -13z"/>
<path d="M751 3934 c0 -11 3 -14 6 -6 3 7 2 16 -1 19 -3 4 -6 -2 -5 -13z"/>
<path d="M735 3873 c-19 -101 -30 -300 -23 -429 9 -166 35 -303 88 -458 58
-171 126 -285 292 -498 134 -172 194 -225 403 -365 77 -51 265 -142 265 -128
0 2 -51 29 -112 60 -154 77 -411 258 -455 321 -10 13 -49 64 -87 112 -155 198
-243 353 -300 531 -78 243 -100 463 -71 724 16 150 16 214 0 130z"/>
<path d="M8176 3860 c20 -43 24 -47 24 -29 0 8 -10 25 -21 39 l-20 25 17 -35z"/>
<path d="M8170 3686 c0 -14 40 -95 50 -101 6 -4 5 8 -5 31 -8 20 -13 39 -10
42 6 7 -15 32 -26 32 -5 0 -9 -2 -9 -4z"/>
<path d="M8222 3638 c3 -7 12 -14 21 -16 12 -2 15 1 11 12 -7 19 -38 22 -32 4z"/>
<path d="M8292 3510 c7 -11 17 -20 22 -20 5 0 1 9 -9 20 -10 11 -20 20 -22 20
-2 0 2 -9 9 -20z"/>
<path d="M8326 3467 c3 -10 9 -15 12 -12 3 3 0 11 -7 18 -10 9 -11 8 -5 -6z"/>
<path d="M8357 3430 c6 -8 31 -41 56 -72 41 -52 69 -120 54 -134 -3 -3 -16 0
-29 7 -21 11 -22 11 -9 -4 20 -25 127 -72 211 -93 143 -35 424 -22 485 24 l20
14 -20 -7 c-109 -39 -381 -43 -513 -7 -100 27 -114 39 -134 110 -14 49 -29 73
-74 119 -31 32 -52 51 -47 43z"/>
<path d="M6127 3423 c-4 -3 -7 -11 -7 -17 0 -6 5 -5 12 2 6 6 9 14 7 17 -3 3
-9 2 -12 -2z"/>
<path d="M8066 3353 c97 -96 202 -163 339 -213 33 -12 69 -25 81 -30 12 -5 25
-24 32 -48 17 -55 42 -115 47 -110 2 2 -7 34 -20 70 -13 37 -20 70 -15 73 5 3
28 1 52 -5 48 -11 217 -11 263 -1 18 5 -35 10 -130 13 -143 5 -170 9 -251 36
-82 27 -107 37 -154 63 -8 5 -33 18 -55 30 -51 27 -142 90 -175 120 -72 65
-78 66 -14 2z"/>
<path d="M6098 3345 c-3 -11 -9 -29 -13 -40 -6 -17 -5 -17 9 3 10 12 16 30 14
40 -3 15 -5 14 -10 -3z"/>
<path d="M6251 3205 c1 -19 18 -51 18 -35 0 8 -4 22 -9 30 -5 8 -9 11 -9 5z"/>
<path d="M6192 2945 c0 -16 2 -22 5 -12 2 9 2 23 0 30 -3 6 -5 -1 -5 -18z"/>
<path d="M8570 2931 c0 -6 4 -13 10 -16 6 -3 7 1 4 9 -7 18 -14 21 -14 7z"/>
<path d="M6170 2895 c0 -8 2 -15 4 -15 2 0 6 7 10 15 3 8 1 15 -4 15 -6 0 -10
-7 -10 -15z"/>
<path d="M8600 2853 c0 -21 6 -50 14 -65 8 -14 19 -43 26 -65 21 -63 59 -132
79 -143 33 -17 34 -11 3 15 -16 14 -33 37 -37 52 -3 15 -15 45 -26 67 -11 23
-27 71 -35 109 -9 37 -17 67 -20 67 -2 0 -4 -17 -4 -37z"/>
<path d="M6146 2826 c-14 -25 -26 -53 -26 -63 1 -17 29 31 51 85 14 35 3 26
-25 -22z"/>
<path d="M6091 2774 c0 -11 3 -14 6 -6 3 7 2 16 -1 19 -3 4 -6 -2 -5 -13z"/>
<path d="M6056 2594 c-4 -9 -4 -19 -1 -22 2 -3 7 3 11 12 4 9 4 19 1 22 -2 3
-7 -3 -11 -12z"/>
<path d="M8824 2519 c38 -22 70 -38 73 -36 4 5 -64 47 -76 47 -5 0 -14 7 -21
15 -7 8 -20 15 -29 15 -9 0 15 -18 53 -41z"/>
<path d="M8956 2452 c6 -4 13 -12 15 -19 3 -9 9 -9 19 -3 13 9 13 11 0 20 -8
5 -22 10 -30 10 -10 0 -11 -3 -4 -8z"/>
<path d="M8932 2338 c45 -89 45 -91 69 -160 34 -99 39 -111 44 -106 15 15
-114 328 -135 328 -5 0 5 -28 22 -62z"/>
<path d="M1948 2206 c-9 -13 -20 -36 -24 -52 -4 -16 -13 -38 -20 -49 -16 -22
-19 -65 -5 -65 16 0 30 26 47 86 31 114 31 120 2 80z"/>
<path d="M5628 2213 c7 -3 16 -2 19 1 4 3 -2 6 -13 5 -11 0 -14 -3 -6 -6z"/>
<path d="M1993 2178 c5 -36 -20 -111 -34 -103 -13 9 -23 -63 -10 -79 14 -17 5
-26 -28 -27 -14 -1 5 -8 43 -16 47 -10 83 -25 112 -47 24 -18 65 -39 91 -45
26 -7 66 -19 88 -27 47 -16 55 -17 55 -6 0 5 -12 14 -27 21 -22 10 -24 14 -12
22 11 8 10 9 -6 8 -32 -3 -95 12 -89 22 3 5 -2 9 -10 9 -22 0 -44 37 -58 99
-6 31 -15 58 -19 61 -4 3 -8 23 -10 45 -2 22 -7 43 -12 46 -13 9 79 3 93 -6 7
-4 21 -28 32 -54 10 -25 26 -54 35 -63 8 -10 13 -24 10 -32 -3 -8 1 -20 9 -26
8 -7 14 -18 14 -24 0 -18 57 -69 69 -62 11 7 7 177 -4 197 -6 8 -2 8 13 0 31
-16 34 -13 12 9 -11 11 -20 23 -20 28 0 4 -30 13 -67 20 -38 7 -92 24 -122 37
-34 16 -72 25 -103 25 l-50 0 5 -32z m94 6 c-3 -3 -12 -4 -19 -1 -8 3 -5 6 6
6 11 1 17 -2 13 -5z"/>
<path d="M5288 2186 c-9 -8 -32 -15 -55 -14 -22 0 -49 -4 -59 -10 -11 -6 -39
-13 -64 -16 -69 -8 -88 -16 -94 -39 -7 -28 3 -42 17 -22 7 8 55 27 107 40 141
37 161 40 171 24 7 -11 9 -9 9 6 0 11 -4 26 -9 33 -7 11 -11 11 -23 -2z"/>
<path d="M2365 2128 c11 -6 29 -19 41 -30 20 -18 21 -21 6 -73 -8 -29 -12 -60
-9 -69 8 -20 117 -70 129 -58 5 5 -10 16 -37 26 -30 12 -50 28 -60 47 -10 18
-12 29 -5 29 6 0 9 4 6 9 -4 5 -4 15 -1 23 4 10 26 12 88 10 66 -2 90 2 122
18 24 12 30 18 15 14 -14 -3 -50 -8 -82 -11 -51 -5 -63 -2 -137 36 -44 22 -84
41 -88 41 -5 0 1 -6 12 -12z"/>
<path d="M2698 2083 c7 -3 16 -2 19 1 4 3 -2 6 -13 5 -11 0 -14 -3 -6 -6z"/>
<path d="M5120 2073 c20 -8 30 -25 23 -36 -3 -5 -26 -18 -52 -30 -25 -11 -41
-22 -35 -24 7 -2 28 5 48 17 47 26 49 25 42 -5 -8 -32 1 -31 44 5 23 21 29 30
18 30 -9 0 -20 -5 -23 -11 -4 -6 -15 4 -25 23 -9 18 -26 34 -36 35 -14 2 -15
1 -4 -4z"/>
<path d="M5330 2066 c0 -6 16 -12 36 -14 23 -1 34 2 32 9 -5 15 -68 20 -68 5z"/>
<path d="M4875 2060 c-3 -6 -17 -7 -30 -4 -19 5 -35 -6 -90 -60 -37 -36 -64
-66 -61 -66 3 0 37 22 74 49 68 48 68 48 165 53 54 3 100 8 104 12 14 14 -7
17 -48 6 -45 -12 -113 -5 -104 11 4 5 4 9 1 9 -3 0 -8 -5 -11 -10z"/>
<path d="M5068 2063 c6 -2 18 -2 25 0 6 3 1 5 -13 5 -14 0 -19 -2 -12 -5z"/>
<path d="M9060 2046 c0 -2 8 -10 18 -17 15 -13 16 -12 3 4 -13 16 -21 21 -21
13z"/>
<path d="M4750 2030 c0 -5 5 -10 11 -10 5 0 7 5 4 10 -3 6 -8 10 -11 10 -2 0
-4 -4 -4 -10z"/>
<path d="M5346 1995 c4 -22 10 -44 15 -49 5 -6 0 -20 -14 -34 l-22 -24 25 7
c45 14 47 34 9 105 l-19 35 6 -40z"/>
<path d="M5414 1958 c7 -24 23 -61 35 -83 23 -40 23 -40 17 -8 -3 17 -2 33 2
36 4 2 2 2 -5 1 -11 -3 -43 53 -43 74 0 6 -4 13 -10 17 -5 3 -3 -14 4 -37z"/>
<path d="M9155 1960 c3 -5 11 -10 16 -10 6 0 7 5 4 10 -3 6 -11 10 -16 10 -6
0 -7 -4 -4 -10z"/>
<path d="M8553 1915 c0 -22 2 -30 4 -17 2 12 2 30 0 40 -3 9 -5 -1 -4 -23z"/>
<path d="M2623 1913 c-100 -23 -77 -44 26 -24 30 6 51 5 68 -4 l25 -13 -37
-12 c-20 -6 -43 -9 -51 -6 -8 3 -13 2 -10 -3 6 -8 -106 -20 -229 -23 -67 -1
-65 -2 35 -10 58 -5 121 -9 140 -10 48 -1 130 19 149 36 9 8 25 16 36 18 17 3
17 5 5 16 -70 59 -61 58 -157 35z"/>
<path d="M4660 1909 c0 -5 5 -7 10 -4 6 3 10 8 10 11 0 2 -4 4 -10 4 -5 0 -10
-5 -10 -11z"/>
<path d="M4985 1900 c-13 -6 -15 -9 -5 -9 8 0 22 4 30 9 18 12 2 12 -25 0z"/>
<path d="M9234 1895 c11 -8 25 -15 30 -15 6 0 2 7 -8 15 -11 8 -25 15 -30 15
-6 0 -2 -7 8 -15z"/>
<path d="M5494 1863 c8 -56 24 -95 35 -89 10 7 -16 105 -31 121 -7 7 -9 -4 -4
-32z"/>
<path d="M4630 1881 c0 -5 -9 -13 -21 -16 -11 -4 -18 -9 -16 -11 7 -7 57 18
57 28 0 4 -4 8 -10 8 -5 0 -10 -4 -10 -9z"/>
<path d="M4891 1855 c-19 -19 -29 -35 -24 -35 5 0 20 12 34 26 13 14 33 30 44
34 l20 9 -20 0 c-11 1 -35 -15 -54 -34z"/>
<path d="M5266 1849 c-21 -16 -35 -29 -30 -29 6 0 25 13 44 30 45 37 37 37
-14 -1z"/>
<path d="M9314 1835 c11 -8 24 -15 30 -15 5 0 1 7 -10 15 -10 8 -23 14 -29 14
-5 0 -1 -6 9 -14z"/>
<path d="M4494 1805 c-10 -8 -14 -15 -8 -15 6 0 17 7 24 15 16 19 9 19 -16 0z"/>
<path d="M5186 1782 l-19 -27 26 24 c28 26 32 31 20 31 -5 0 -17 -13 -27 -28z"/>
<path d="M9330 1790 c-13 -8 -12 -10 3 -10 9 0 17 5 17 10 0 12 -1 12 -20 0z"/>
<path d="M4774 1766 c-38 -32 -27 -42 11 -11 17 13 27 26 24 30 -4 3 -20 -5
-35 -19z"/>
<path d="M9276 1781 c-4 -5 3 -7 14 -4 23 6 26 13 6 13 -8 0 -17 -4 -20 -9z"/>
<path d="M4415 1750 c-3 -5 -2 -10 4 -10 5 0 13 5 16 10 3 6 2 10 -4 10 -5 0
-13 -4 -16 -10z"/>
<path d="M9315 1726 c17 -13 32 -22 35 -19 7 6 -39 43 -54 43 -6 0 3 -11 19
-24z"/>
<path d="M5097 1702 c-32 -33 -34 -41 -9 -39 9 0 24 16 33 34 20 40 12 42 -24
5z"/>
<path d="M1712 1266 c-7 -52 -12 -118 -12 -147 0 -74 21 -169 37 -169 10 0 11
8 6 28 -5 15 -7 107 -5 205 2 98 -1 177 -6 177 -5 0 -14 -42 -20 -94z"/>
<path d="M8880 25 c-7 -9 -10 -18 -7 -21 10 -11 37 5 37 21 0 19 -14 19 -30 0z"/>
</g>
</svg>
